# xmcd
#
# Track frame offsets: 
#        150
#        29313
#        48951
#        67714
#        89237
#        102324
#        127526
#        143602
#        158847
#        179971
#        192315
#        220789
#        239221
#        255263
#
# Disc length: 3745 seconds
#
# Revision: 1
# Processed by: cddbd v1.5.2PL0 Copyright (c) Steve Scherf et al.
# Submitted via: ExactAudioCopyFreeDBPlugin 1.0
#
DISCID=c20e9f0e
DTITLE=Alan Jackson - The Bluegrass Album
DYEAR=2013
DGENRE=Bluegrass
TTITLE0=Long Hard Road
TTITLE1=Mary
TTITLE2=Wild and Blue
TTITLE3=Appalachian Mountain Girl
TTITLE4=Ain't Got Trouble Now
TTITLE5=Blue Ridge Mountain Song
TTITLE6=Tie Me Down
TTITLE7=There Is a Time
TTITLE8=Blue Side of Heaven
TTITLE9=Let's Get Back To Me and You
TTITLE10=Way Beyond The Blue
TTITLE11=Knew All Along
TTITLE12=Blacktop
TTITLE13=Blue Moon of Kentucky
EXTD=
EXTT0=
EXTT1=
EXTT2=
EXTT3=
EXTT4=
EXTT5=
EXTT6=
EXTT7=
EXTT8=
EXTT9=
EXTT10=
EXTT11=
EXTT12=
EXTT13=
PLAYORDER=
